{
  "accessors": [
    {
      "bufferView": 2,
      "componentType": 5126,
      "count": 12536,
      "max": [
        0.1835079938173294,
        0.07504919916391373,
        0.03845490142703056
      ],
      "min": [
        -0.12908999621868134,
        -0.025907397270202637,
        -0.057073887437582016
      ],
      "type": "VEC3"
    },
    {
      "bufferView": 2,
      "byteOffset": 150432,
      "componentType": 5126,
      "count": 12536,
      "max": [
        0.9981313347816467,
        0.9994312524795532,
        0.9999681711196899
      ],
      "min": [
        -0.9998912215232849,
        -0.9999343156814575,
        -0.9803788065910339
      ],
      "type": "VEC3"
    },
    {
      "bufferView": 1,
      "componentType": 5126,
      "count": 12536,
      "max": [
        0.9932786822319031,
        0.9976300001144409
      ],
      "min": [
        6.035989827068988e-06,
        6.191980355652049e-05
      ],
      "type": "VEC2"
    },
    {
      "bufferView": 0,
      "componentType": 5125,
      "count": 64227,
      "type": "SCALAR"
    },
    {
      "bufferView": 2,
      "byteOffset": 300864,
      "componentType": 5126,
      "count": 59,
      "max": [
        0.146157369017601,
        0.06453756242990494,
        0.02314370684325695
      ],
      "min": [
        0.11385836452245712,
        0.04702020063996315,
        0.013002799823880196
      ],
      "type": "VEC3"
    },
    {
      "bufferView": 2,
      "byteOffset": 301572,
      "componentType": 5126,
      "count": 59,
      "max": [
        0.9501075744628906,
        0.7008383274078369,
        0.9841837286949158
      ],
      "min": [
        -0.9740272164344788,
        -0.9740892052650452,
        -0.9803788065910339
      ],
      "type": "VEC3"
    },
    {
      "bufferView": 1,
      "byteOffset": 100288,
      "componentType": 5126,
      "count": 59,
      "max": [
        0.0,
        0.0
      ],
      "min": [
        0.0,
        0.0
      ],
      "type": "VEC2"
    },
    {
      "bufferView": 0,
      "byteOffset": 256908,
      "componentType": 5125,
      "count": 153,
      "type": "SCALAR"
    }
  ],
  "asset": {
    "extras": {
      "author": "alban (https://sketchfab.com/alban)",
      "license": "CC-BY-4.0 (http://creativecommons.org/licenses/by/4.0/)",
      "source": "https://sketchfab.com/3d-models/key-to-the-royal-chapel-of-versailles-58ec6f52a72143b591aad1f86bcccd0c",
      "title": "Key to the Royal Chapel of Versailles"
    },
    "generator": "Sketchfab-12.62.1",
    "version": "2.0"
  },
  "bufferViews": [
    {
      "buffer": 0,
      "byteLength": 257520,
      "name": "floatBufferViews",
      "target": 34963
    },
    {
      "buffer": 0,
      "byteLength": 100760,
      "byteOffset": 257520,
      "byteStride": 8,
      "name": "floatBufferViews",
      "target": 34962
    },
    {
      "buffer": 0,
      "byteLength": 302280,
      "byteOffset": 358280,
      "byteStride": 12,
      "name": "floatBufferViews",
      "target": 34962
    }
  ],
  "buffers": [
    {
      "byteLength": 660560,
      "uri": "scene.bin"
    }
  ],
  "images": [
    {
      "uri": "textures/textured_0_baseColor.jpeg"
    }
  ],
  "materials": [
    {
      "doubleSided": true,
      "name": "textured_0",
      "pbrMetallicRoughness": {
        "baseColorTexture": {
          "index": 0
        },
        "metallicFactor": 0.28747818737877656,
        "roughnessFactor": 0.4814752324146192
      }
    }
  ],
  "meshes": [
    {
      "name": "Object_0",
      "primitives": [
        {
          "attributes": {
            "NORMAL": 1,
            "POSITION": 0,
            "TEXCOORD_0": 2
          },
          "indices": 3,
          "material": 0,
          "mode": 4
        }
      ]
    },
    {
      "name": "Object_1",
      "primitives": [
        {
          "attributes": {
            "NORMAL": 5,
            "POSITION": 4,
            "TEXCOORD_0": 6
          },
          "indices": 7,
          "material": 0,
          "mode": 4
        }
      ]
    }
  ],
  "nodes": [
    {
      "children": [
        1
      ],
      "matrix": [
        1.0,
        0.0,
        0.0,
        0.0,
        0.0,
        2.220446049250313e-16,
        -1.0,
        0.0,
        0.0,
        1.0,
        2.220446049250313e-16,
        0.0,
        0.0,
        0.0,
        0.0,
        1.0
      ],
      "name": "Sketchfab_model"
    },
    {
      "children": [
        2,
        3
      ],
      "name": "versailleskey.obj.cleaner.materialmerger.gles"
    },
    {
      "mesh": 0,
      "name": "Object_2"
    },
    {
      "mesh": 1,
      "name": "Object_3"
    }
  ],
  "samplers": [
    {
      "magFilter": 9729,
      "minFilter": 9987,
      "wrapS": 10497,
      "wrapT": 10497
    }
  ],
  "scene": 0,
  "scenes": [
    {
      "name": "Sketchfab_Scene",
      "nodes": [
        0
      ]
    }
  ],
  "textures": [
    {
      "sampler": 0,
      "source": 0
    }
  ]
}
